<?xml version="1.0" encoding="UTF-8"?>
<svg width="130px" height="26px" viewBox="0 0 130 26" version="1.1" xmlns="http://www.w3.org/2000/svg" xmlns:xlink="http://www.w3.org/1999/xlink">
    <!-- Generator: Sketch 54.1 (76490) - https://sketchapp.com -->
    <title>LOGO</title>
    <desc>Created with Sketch.</desc>
    <defs>
        <linearGradient x1="50%" y1="0%" x2="50%" y2="100%" id="linearGradient-1">
            <stop stop-color="#1890FF" offset="0%"></stop>
            <stop stop-color="#0B69EF" offset="100%"></stop>
        </linearGradient>
    </defs>
    <g id="行情" stroke="none" stroke-width="1" fill="none" fill-rule="evenodd">
        <g id="行情_币种排行" transform="translate(-320.000000, -57.000000)">
            <g id="navbar_行情" transform="translate(0.000000, 40.000000)">
                <g id="LOGO" transform="translate(320.000000, 17.000000)">
                    <path d="M3.18789059,0 L22.4218655,-4.4408921e-16 C24.1824889,-7.67510474e-16 25.6097561,1.42726723 25.6097561,3.18789059 L25.6097561,3.4222789 C25.6097561,5.18290226 24.1824889,6.61016949 22.4218655,6.61016949 L3.18789059,6.61016949 C1.42726723,6.61016949 6.59703386e-16,5.18290226 4.4408921e-16,3.4222789 L-4.4408921e-16,3.18789059 C-6.59703386e-16,1.42726723 1.42726723,-1.20667946e-16 3.18789059,-4.4408921e-16 Z M3.18789059,9.69491525 L9.61698746,9.69491525 C11.3776108,9.69491525 12.804878,11.1221825 12.804878,12.8828058 L12.804878,13.1171942 C12.804878,14.8778175 11.3776108,16.3050847 9.61698746,16.3050847 L3.18789059,16.3050847 C1.42726723,16.3050847 6.59703386e-16,14.8778175 4.4408921e-16,13.1171942 L0,12.8828058 C-2.15614176e-16,11.1221825 1.42726723,9.69491525 3.18789059,9.69491525 Z M3.305,26 C1.4796989,26 0,24.5202632 0,22.6949153 C0,20.8695674 1.4796989,19.3898305 3.305,19.3898305 C5.1303011,19.3898305 6.61,20.8695674 6.61,22.6949153 C6.61,24.5202632 5.1303011,26 3.305,26 Z M31.8121094,26 L12.5781345,26 C10.8175111,26 9.3902439,24.5727328 9.3902439,22.8121094 L9.3902439,22.5777211 C9.3902439,20.8170977 10.8175111,19.3898305 12.5781345,19.3898305 L31.8121094,19.3898305 C33.5727328,19.3898305 35,20.8170977 35,22.5777211 L35,22.8121094 C35,24.5727328 33.5727328,26 31.8121094,26 Z M31.8121094,16.3050847 L25.3830125,16.3050847 C23.6223892,16.3050847 22.195122,14.8778175 22.195122,13.1171942 L22.195122,12.8828058 C22.195122,11.1221825 23.6223892,9.69491525 25.3830125,9.69491525 L31.8121094,9.69491525 C33.5727328,9.69491525 35,11.1221825 35,12.8828058 L35,13.1171942 C35,14.8778175 33.5727328,16.3050847 31.8121094,16.3050847 Z M31.705,0 C33.5303011,0 35.01,1.47973684 35.01,3.30508475 C35.01,5.13043265 33.5303011,6.61016949 31.705,6.61016949 C29.8796989,6.61016949 28.4,5.13043265 28.4,3.30508475 C28.4,1.47973684 29.8796989,0 31.705,0 Z" id="Combined-Shape" fill="url(#linearGradient-1)"></path>
                    <path d="M110.692941,14.2786917 L110.319227,16.5687726 L127.325231,16.5687726 L127.325231,22.691462 C127.325231,24.5187171 126.04587,26 124.467698,26 L114.572836,26 C113.78375,26 113.14407,25.2593585 113.14407,24.345731 L113.14407,22.8129686 L124.1094,22.8129686 L124.1094,19.7687726 L107.450123,19.7687726 C106.661037,19.7687726 106.021357,19.0546727 106.021357,18.1410451 C106.021357,18.044428 106.028667,17.9479966 106.043204,17.8528568 L106.742659,14.2786917 L103,14.2786917 L103,11.053119 L130,11.053119 L130,14.2786917 L110.692941,14.2786917 Z M105,-2.22044605e-14 L128,-2.22044605e-14 L128,5.69738766 C128,7.52137009 126.732626,9 125.16924,9 L105,9 L105,-2.22044605e-14 Z M108.2,3.2 L108.2,5.8 L123.920461,5.8 C124.406217,5.8 124.8,5.27101357 124.8,4.61847573 L124.8,3.2 L108.2,3.2 Z" id="Combined-Shape" fill="#0B1721" opacity="0.800000012"></path>
                    <path d="M84.6309774,3.97903932e-13 L88.294818,-1.8189894e-12 L88.294818,24 C88.294818,25.1045695 87.3993875,26 86.294818,26 L81.041307,26 C79.9578579,26 79.0714182,25.1372775 79.0420422,24.0542267 L79,22.504188 L83.6309774,22.504188 C84.1832622,22.504188 84.6309774,22.0564728 84.6309774,21.504188 L84.6309774,3.97903932e-13 Z M78.705715,5.62014844 L80.8006564,5.76938498 L77.1628719,20.6783463 C76.931601,21.6261785 76.0501883,22.2688259 75.0770402,22.1991484 L73,22.050432 L76.6200868,7.14313012 C76.8504504,6.19450641 77.7319887,5.55078348 78.705715,5.62014844 Z M94.2949414,5.62014844 C95.2686677,5.55078348 96.150206,6.19450641 96.3805697,7.14313012 L100.000656,22.050432 L97.9236162,22.1991484 C96.9504681,22.2688259 96.0690554,21.6261785 95.8377845,20.6783463 L92.2,5.76938498 L94.2949414,5.62014844 Z" id="Combined-Shape" fill="#0B1721" opacity="0.800000012"></path>
                    <path d="M50.2945704,14.75 L42.844344,14.75 C41.8257409,14.75 41,13.9242591 41,12.905656 L41,11.25 L50.2945704,11.25 L50.2945704,7.25 L41,7.25 L41,3.75 L50.2945704,3.75 L50.2945704,0 L53.7945704,0 L53.7945704,26 L50.2945704,26 L50.2945704,22.25 L41,22.25 L41,18.75 L50.2945704,18.75 L50.2945704,14.75 Z M60,14.75 L60,18.75 L69.2945704,18.75 L69.2945704,22.25 L60,22.25 L60,26 L56.5,26 L56.5,0 L60,0 L60,3.75 L69.2945704,3.75 L69.2945704,7.25 L60,7.25 L60,11.25 L69.2945704,11.25 L69.2945704,12.905656 C69.2945704,13.9242591 68.4688295,14.75 67.4502264,14.75 L60,14.75 Z" id="Combined-Shape" fill="#0B1721" opacity="0.800000012"></path>
                </g>
            </g>
        </g>
    </g>
</svg>