<svg xmlns="http://www.w3.org/2000/svg" viewBox="0 0 785.17 130.79" class="svg-icon consensus-distributed-icon"><g id="Layer_2" data-name="Layer 2"><g id="Layer_1-2" data-name="Layer 1"><path class="cls-1" d="M59.75,93.7a3.63,3.63,0,0,1-3.66,0L34.29,81.12A3.65,3.65,0,0,1,32.46,78V52.84a3.64,3.64,0,0,1,1.83-3.17l21.8-12.59a3.68,3.68,0,0,1,3.66,0L82.89,50.45a1,1,0,0,0,.94,0L91.51,46a.93.93,0,0,0,0-1.62l-31.2-18a4.82,4.82,0,0,0-4.79,0L25.28,43.82A4.8,4.8,0,0,0,22.89,48V82.82A4.8,4.8,0,0,0,25.28,87l30.24,17.46a4.82,4.82,0,0,0,4.79,0l31.2-18a.94.94,0,0,0,0-1.63l-7.68-4.44a.93.93,0,0,0-.94,0Z"></path><path class="cls-2" d="M53.13,129.51,4.78,101.59A9.55,9.55,0,0,1,0,93.31V37.48A9.54,9.54,0,0,1,4.78,29.2L53.13,1.28a9.57,9.57,0,0,1,9.57,0L111.05,29.2a9.54,9.54,0,0,1,4.78,8.28V93.31a9.55,9.55,0,0,1-4.78,8.28L62.7,129.51A9.57,9.57,0,0,1,53.13,129.51ZM16.42,93.58l37.84,21.85a7.34,7.34,0,0,0,7.31,0L99.42,93.58a7.32,7.32,0,0,0,3.65-6.34V43.55a7.32,7.32,0,0,0-3.65-6.34L61.57,15.36a7.34,7.34,0,0,0-7.31,0L16.42,37.21a7.31,7.31,0,0,0-3.66,6.34V87.24A7.31,7.31,0,0,0,16.42,93.58Z"></path><path class="cls-1" d="M225.92,44.09a11,11,0,0,0-7.32,2.57.37.37,0,0,1-.61-.27v-1.3a1,1,0,0,0-1-1h-5a1,1,0,0,0-1,1V85.7a1,1,0,0,0,1,1h5.34a1,1,0,0,0,1-1v-28c0-5,1.8-7.24,5.83-7.24,4.52,0,5.9,2,5.9,8.52V85.7a1,1,0,0,0,1,1h5.34a1,1,0,0,0,1-1v-27C237.37,48.88,233.63,44.09,225.92,44.09Z"></path><path class="cls-1" d="M258.75,61.89c-3.88-1.78-7.23-3.31-7.23-6.67,0-2.71,2.06-4.45,5.25-4.45,3.77,0,5.68,2,5.68,6.09h0a.76.76,0,0,0,.77.76h5.61a.77.77,0,0,0,.77-.76h0c0-8.16-4.73-12.84-13-12.84-7.36,0-12.31,4.53-12.31,11.27,0,7.32,5.6,10,10.55,12.29,4.15,2,7.74,3.64,7.74,7.64,0,3.3-2.93,5.09-5.69,5.09-3.83,0-6.11-2.39-6.11-6.38h0a.77.77,0,0,0-.77-.76H244.2a.77.77,0,0,0-.77.76h0c0,7.92,5.17,12.84,13.48,12.84,4.18,0,7.6-1.3,9.91-3.75a11.69,11.69,0,0,0,3.07-8.09C269.89,67,263.71,64.16,258.75,61.89Z"></path><path class="cls-1" d="M156.39,44.09c-8.14,0-13.19,5.25-13.19,13.7V72.93c0,8.66,4.93,13.84,13.19,13.84s13.19-5.23,13.19-14h0a.77.77,0,0,0-.77-.77H163a.77.77,0,0,0-.77.77h0c0,4.8-2,7.23-5.82,7.23s-5.9-2.3-5.9-6.3V57.14c0-4,2.09-6.23,5.9-6.23,4,0,5.82,2.3,5.82,7.23h0a.77.77,0,0,0,.77.77h5.83a.77.77,0,0,0,.77-.77h0C169.58,49.35,164.65,44.09,156.39,44.09Z"></path><path class="cls-1" d="M189.85,44.16c-8.14,0-13.19,5.22-13.19,13.63V72.93c0,8.66,4.93,13.84,13.19,13.84S203,81.47,203,72.93V57.79C203,49.51,197.86,44.16,189.85,44.16Zm-5.9,13c0-4,2.09-6.23,5.9-6.23s5.83,2.27,5.83,6.23V73.72c0,3.94-2.18,6.3-5.83,6.3s-5.9-2.3-5.9-6.3Z"></path><path class="cls-1" d="M358.77,61.89c-3.88-1.78-7.23-3.31-7.23-6.67,0-2.71,2.06-4.45,5.25-4.45,3.77,0,5.68,2,5.68,6.09h0a.76.76,0,0,0,.77.76h5.61a.77.77,0,0,0,.77-.76h0c0-8.16-4.73-12.84-13-12.84-7.36,0-12.31,4.53-12.31,11.27,0,7.32,5.6,10,10.55,12.29,4.15,2,7.74,3.64,7.74,7.64,0,3.3-2.93,5.09-5.68,5.09-3.84,0-6.12-2.39-6.12-6.38h0a.77.77,0,0,0-.77-.76h-5.83a.76.76,0,0,0-.76.76h0c0,7.92,5.16,12.84,13.48,12.84,4.17,0,7.59-1.3,9.9-3.75a11.69,11.69,0,0,0,3.07-8.09C369.91,67,363.73,64.16,358.77,61.89Z"></path><path class="cls-1" d="M425,61.89c-3.88-1.78-7.23-3.31-7.23-6.67,0-2.71,2.06-4.45,5.25-4.45,3.77,0,5.68,2,5.68,6.09h0a.76.76,0,0,0,.76.76h5.62a.76.76,0,0,0,.76-.76h0c0-8.16-4.72-12.84-13-12.84-7.37,0-12.32,4.53-12.32,11.27,0,7.32,5.61,10,10.55,12.29,4.16,2,7.74,3.64,7.74,7.64,0,3.3-2.92,5.09-5.68,5.09-3.83,0-6.12-2.39-6.12-6.38h0a.76.76,0,0,0-.76-.76h-5.83a.76.76,0,0,0-.77.76h0c0,7.92,5.17,12.84,13.48,12.84,4.17,0,7.6-1.3,9.91-3.75a11.73,11.73,0,0,0,3.06-8.09C436.1,67,429.93,64.16,425,61.89Z"></path><path class="cls-1" d="M396.23,73.72c0,3.94-2.18,6.3-5.83,6.3s-5.9-2.3-5.9-6.3V45.34a1.26,1.26,0,0,0-1.26-1.26h-4.92a1.27,1.27,0,0,0-1.26,1.26V72.93c0,8.54,5.11,13.84,13.34,13.84s13.19-5.3,13.19-13.84V45.34a1.26,1.26,0,0,0-1.26-1.26h-4.85a1.26,1.26,0,0,0-1.25,1.26Z"></path><path class="cls-1" d="M289.58,44c-8.14,0-13.19,5.22-13.19,13.62V72.79c0,8.62,5.05,14,13.19,14,6.56,0,13.19-3.82,13.19-12.34h0A1.41,1.41,0,0,0,301.36,73h-4.55a1.41,1.41,0,0,0-1.4,1.41v.64c0,3.13-2.35,5.24-5.83,5.24-5.14,0-5.9-4.8-5.9-7.67v-4.2A1.41,1.41,0,0,1,285.09,67h16.27a1.41,1.41,0,0,0,1.41-1.41v-8C302.77,49.37,297.59,44,289.58,44Zm0,6.53c3.59,0,5.83,2.47,5.83,6.45v2.88A1.41,1.41,0,0,1,294,61.29h-8.91a1.41,1.41,0,0,1-1.41-1.41v-3C283.68,52.85,285.83,50.55,289.58,50.55Z"></path><path class="cls-1" d="M325.94,44.09a11.06,11.06,0,0,0-7.18,2.45.46.46,0,0,1-.75-.36V45.09a1,1,0,0,0-1-1H312a1,1,0,0,0-1,1V85.7a1,1,0,0,0,1,1h5.34a1,1,0,0,0,1-1v-28c0-5,1.8-7.24,5.83-7.24,4.52,0,5.9,2,5.9,8.52V85.7a1,1,0,0,0,1,1h5.34a1,1,0,0,0,1-1v-27C337.39,48.88,333.65,44.09,325.94,44.09Z"></path><path class="cls-1" d="M444.45,54.78A10.77,10.77,0,1,1,455.21,65.6,10.59,10.59,0,0,1,444.45,54.78Zm19.61,0a8.85,8.85,0,1,0-17.69,0,8.85,8.85,0,1,0,17.69,0ZM451.44,60.7a.35.35,0,0,1-.39-.4V49.15a.36.36,0,0,1,.39-.4H456c2.59,0,4.11,1.3,4.11,3.55a3.35,3.35,0,0,1-2.37,3.33l2.43,4.67c.11.23,0,.4-.23.4h-1.58a.51.51,0,0,1-.5-.4l-2.26-4.39h-2.14c-.17,0-.22.06-.22.23V60.3a.36.36,0,0,1-.4.4Zm6.48-8.4c0-1.07-.62-1.63-2-1.63h-2.54c-.17,0-.22.06-.22.23v2.87a.2.2,0,0,0,.22.22H456C457.3,54,457.92,53.37,457.92,52.3Z"></path><path class="cls-2" d="M478.16,76V55.44C478.16,48.21,483,44,489,44a8.91,8.91,0,0,1,4.55,1.24,1,1,0,0,0,1.52-.86v-16a1,1,0,0,1,1-1h6.48a1,1,0,0,1,1,1v57.5a1,1,0,0,1-1,1h-5a1,1,0,0,1-1-.86l0-.23a1,1,0,0,0-1.64-.62,9.21,9.21,0,0,1-6,2C482.89,87.23,478.16,83.07,478.16,76ZM495,75.25V55.86c0-3.06-2-5-4.37-5a3.77,3.77,0,0,0-4,3.91V76.35a3.8,3.8,0,0,0,4,4C493,80.35,495,78.65,495,75.25Z"></path><ellipse class="cls-2" cx="517.97" cy="33.42" rx="5.53" ry="5.27"></ellipse><rect class="cls-2" x="513.68" y="44.39" width="8.48" height="42.5" rx="1"></rect><path class="cls-2" d="M530.64,55.52c0-6.71,5.62-11.64,12.58-11.64s12.14,5,12.14,11.64v.79a1,1,0,0,1-1,1h-6.12a1,1,0,0,1-1-1V55a3.88,3.88,0,0,0-3.93-3.82,4.15,4.15,0,0,0-4.19,4c0,6,16.78,9.53,16.78,20.58,0,6.63-5.63,11.64-12.59,11.64s-12.76-5-12.76-11.64v-.87a1,1,0,0,1,1-1h6.39a1,1,0,0,1,1,1v1.38a4.15,4.15,0,0,0,8.3-.17C547.24,70.49,530.64,66.66,530.64,55.52Z"></path><path class="cls-2" d="M579.28,80.41v5.48a1,1,0,0,1-1,1h-1.14c-7.86,0-13.3-3.4-13.3-13.17V36.55a1,1,0,0,1,1-1h6.57a1,1,0,0,1,1,1v6.84a1,1,0,0,0,1,1h6.21a1,1,0,0,1,1,1V51a1,1,0,0,1-1,1h-6.21a1,1,0,0,0-1,1V74.31a4.76,4.76,0,0,0,5.08,5.1h.79A1,1,0,0,1,579.28,80.41Z"></path><path class="cls-2" d="M596.59,63V85.89a1,1,0,0,1-1,1h-6.48a1,1,0,0,1-1-1V45.39a1,1,0,0,1,1-1h5.49a1,1,0,0,1,1,.92l.17,2.09a1,1,0,0,0,1.71.62c1.62-1.73,4.42-3.62,9.3-3.86a1,1,0,0,1,1.07,1v5.48a1,1,0,0,1-.93,1C601.1,51.93,596.59,55,596.59,63Z"></path><ellipse class="cls-2" cx="617.39" cy="33.42" rx="5.53" ry="5.27"></ellipse><rect class="cls-2" x="613.1" y="44.39" width="8.48" height="42.5" rx="1"></rect><path class="cls-2" d="M638.78,85.8l0,.23a1,1,0,0,1-1,.86h-5a1,1,0,0,1-1-1V28.39a1,1,0,0,1,1-1h6.48a1,1,0,0,1,1,1v16a1,1,0,0,0,1.51.86A8.94,8.94,0,0,1,646.3,44c6,0,10.8,4.25,10.8,11.48V76c0,7.06-4.73,11.22-10.71,11.22a9.21,9.21,0,0,1-6-2A1,1,0,0,0,638.78,85.8Zm9.84-9.45V54.76a3.77,3.77,0,0,0-4-3.91c-2.41,0-4.37,1.95-4.37,5V75.25c0,3.4,2,5.1,4.37,5.1A3.79,3.79,0,0,0,648.62,76.35Z"></path><path class="cls-2" d="M667.83,44.39h6.48a1,1,0,0,1,1,1V76.1A3.85,3.85,0,0,0,679.42,80c2.4,0,4.28-1.53,4.28-3.91V45.39a1,1,0,0,1,1-1h6.48a1,1,0,0,1,1,1V75c0,7.4-5.8,12.41-12.68,12.41s-12.67-4.84-12.67-12.32V45.39A1,1,0,0,1,667.83,44.39Z"></path><path class="cls-2" d="M717.79,80.41v5.48a1,1,0,0,1-1,1h-1.14c-7.86,0-13.3-3.4-13.3-13.17V36.55a1,1,0,0,1,1-1h6.57a1,1,0,0,1,1,1v6.84a1,1,0,0,0,1,1h6.21a1,1,0,0,1,1,1V51a1,1,0,0,1-1,1h-6.21a1,1,0,0,0-1,1V74.31a4.77,4.77,0,0,0,5.09,5.1h.78A1,1,0,0,1,717.79,80.41Z"></path><path class="cls-2" d="M742.69,76.27V74.89a1,1,0,0,1,1-1h6.12a1,1,0,0,1,1,1v.87c0,6.88-5.53,11.64-12.4,11.64s-12.68-4.93-12.68-11.64V55.44c0-6.63,5.72-11.56,12.68-11.56S751,48.81,751,55.44v7.39c0,3.75-1.87,6.38-6.87,6.38H735.3a1,1,0,0,0-1,1v6.06a4,4,0,0,0,4.11,3.91A4.1,4.1,0,0,0,742.69,76.27ZM735.3,61.9h6.3a1,1,0,0,0,1-1v-6c0-2.21-2-3.74-4.28-3.74a3.84,3.84,0,0,0-4,3.74v6A1,1,0,0,0,735.3,61.9Z"></path><path class="cls-2" d="M759.83,76V55.44c0-7.23,4.82-11.48,10.8-11.48a8.94,8.94,0,0,1,4.55,1.24,1,1,0,0,0,1.51-.86v-16a1,1,0,0,1,1-1h6.48a1,1,0,0,1,1,1v57.5a1,1,0,0,1-1,1h-5a1,1,0,0,1-1-.86l0-.23a1,1,0,0,0-1.65-.62,9.18,9.18,0,0,1-6,2C764.56,87.23,759.83,83.07,759.83,76Zm16.86-.76V55.86c0-3.06-2-5-4.37-5a3.77,3.77,0,0,0-4,3.91V76.35a3.79,3.79,0,0,0,4,4C774.64,80.35,776.69,78.65,776.69,75.25Z"></path></g></g></svg>