<?xml version="1.0" standalone="no"?><!DOCTYPE svg PUBLIC "-//W3C//DTD SVG 1.1//EN" "http://www.w3.org/Graphics/SVG/1.1/DTD/svg11.dtd"><svg t="1587981320860" class="icon" viewBox="0 0 1024 1024" version="1.1" xmlns="http://www.w3.org/2000/svg" p-id="2185" xmlns:xlink="http://www.w3.org/1999/xlink" width="128" height="128"><defs><style type="text/css"></style></defs><path d="M818.217 770.13c25.597-30.29 46.421-64.031 62.111-100.694 21.328-49.84 32.143-102.809 32.143-157.436 0-54.047-10.593-106.497-31.486-155.893-20.172-47.692-49.042-90.516-85.809-127.283-36.767-36.767-79.59-65.637-127.283-85.809-49.396-20.892-101.846-31.486-155.893-31.486s-106.497 10.594-155.893 31.486c-47.692 20.172-90.516 49.042-127.283 85.809-36.767 36.767-65.637 79.591-85.809 127.283-20.892 49.396-31.486 101.846-31.486 155.893s10.593 106.497 31.486 155.893c20.172 47.692 49.042 90.516 85.809 127.283 36.767 36.767 79.59 65.637 127.283 85.809 49.396 20.893 101.846 31.486 155.893 31.486h359.231a37.001 37.001 0 0 0 26.163-63.163l-79.177-79.178zM322.875 563.487c-28.435 0-51.487-23.052-51.487-51.487s23.052-51.487 51.487-51.487c28.436 0 51.487 23.052 51.487 51.487s-23.052 51.487-51.487 51.487z m189.125 0c-28.436 0-51.487-23.052-51.487-51.487s23.051-51.487 51.487-51.487 51.487 23.052 51.487 51.487-23.051 51.487-51.487 51.487z m189.125 0c-28.436 0-51.487-23.052-51.487-51.487s23.052-51.487 51.487-51.487c28.435 0 51.487 23.052 51.487 51.487s-23.051 51.487-51.487 51.487z" p-id="2186" fill="#ffffff"></path></svg>