<?xml version="1.0" standalone="no"?><!DOCTYPE svg PUBLIC "-//W3C//DTD SVG 1.1//EN" "http://www.w3.org/Graphics/SVG/1.1/DTD/svg11.dtd"><svg t="1586931354774" class="icon" viewBox="0 0 1024 1024" version="1.1" xmlns="http://www.w3.org/2000/svg" p-id="2685" xmlns:xlink="http://www.w3.org/1999/xlink" width="128" height="128"><defs><style type="text/css"></style></defs><path d="M640.745765 168.041853C652.045413 168.041853 661.205589 158.197404 661.205589 146.053661 661.205589 133.909918 652.045413 124.065469 640.745765 124.065469L383.254235 124.065469C371.954587 124.065469 362.794411 133.909918 362.794411 146.053661 362.794411 158.197404 371.954587 168.041853 383.254235 168.041853L640.745765 168.041853ZM845.934407 168.041853C883.618626 168.041853 914.096417 197.489777 914.096417 233.980917L914.096417 849.701319C914.096417 886.12853 883.578901 915.640382 845.922397 915.640382L178.077603 915.640382C140.386073 915.640382 109.903583 886.191808 109.903583 849.701319L109.903583 233.980917C109.903583 197.573221 140.464568 168.041853 178.114322 168.041853L205.584878 168.041853C218.154974 168.041853 228.345052 158.197404 228.345052 146.053661 228.345052 133.909918 218.154974 124.065469 205.584878 124.065469L178.114322 124.065469C115.321973 124.065469 64.383234 173.288053 64.383234 233.980917L64.383234 849.701319C64.383234 910.479297 115.24588 959.616766 178.077603 959.616766L845.922397 959.616766C908.729269 959.616766 959.616766 910.406198 959.616766 849.701319L959.616766 233.980917C959.616766 173.203589 908.760164 124.065469 845.934407 124.065469L813.967561 124.065469C801.397464 124.065469 791.207386 133.909918 791.207386 146.053661 791.207386 158.197404 801.397464 168.041853 813.967561 168.041853L845.934407 168.041853Z" p-id="2686"></path><path d="M273.271058 235.969661C273.271058 248.330256 283.291301 258.350499 295.651896 258.350499 308.012492 258.350499 318.032735 248.330256 318.032735 235.969661L318.032735 86.764072C318.032735 74.403476 308.012492 64.383234 295.651896 64.383234 283.291301 64.383234 273.271058 74.403476 273.271058 86.764072L273.271058 235.969661Z" p-id="2687"></path><path d="M705.967265 235.969661C705.967265 248.330256 715.987508 258.350499 728.348104 258.350499 740.708699 258.350499 750.728942 248.330256 750.728942 235.969661L750.728942 86.764072C750.728942 74.403476 740.708699 64.383234 728.348104 64.383234 715.987508 64.383234 705.967265 74.403476 705.967265 86.764072L705.967265 235.969661Z" p-id="2688"></path><path d="M772.514023 452.317764C785.203647 452.317764 795.490619 442.297522 795.490619 429.936926 795.490619 417.57633 785.203647 407.556088 772.514023 407.556088L251.485977 407.556088C238.796353 407.556088 228.509381 417.57633 228.509381 429.936926 228.509381 442.297522 238.796353 452.317764 251.485977 452.317764L772.514023 452.317764Z" p-id="2689"></path><path d="M608.983633 676.126148C621.344228 676.126148 631.364471 666.105905 631.364471 653.745309 631.364471 641.384714 621.344228 631.364471 608.983633 631.364471L250.89022 631.364471C238.529624 631.364471 228.509381 641.384714 228.509381 653.745309 228.509381 666.105905 238.529624 676.126148 250.89022 676.126148L608.983633 676.126148Z" p-id="2690"></path></svg>