<?xml version="1.0" standalone="no"?><!DOCTYPE svg PUBLIC "-//W3C//DTD SVG 1.1//EN" "http://www.w3.org/Graphics/SVG/1.1/DTD/svg11.dtd"><svg t="1587550376764" class="icon" viewBox="0 0 1024 1024" version="1.1" xmlns="http://www.w3.org/2000/svg" p-id="2690" xmlns:xlink="http://www.w3.org/1999/xlink" width="128" height="128"><defs><style type="text/css"></style></defs><path d="M1000.831326 855.267309c-5.100816 31.432544-13.892826 61.432309-32.66999 87.849621-36.946178 51.988852-87.871772 80.534693-153.992079 80.621284-205.894339 0.304075-411.767535-0.19634-617.64073 0.26078-87.372363 0.195333-160.113863-59.391378-181.300473-138.927253-13.458864-50.491633-16.584196-101.481667-12.829569-152.972117 13.545455-186.205956 129.28947-349.901264 300.648085-425.247543 1.866742-0.825635 3.690188-1.714704 5.534778-2.583635-7.401519-7.467973-14.717455-14.49997-21.620572-21.881352-33.537914-36.012807-52.987669-77.777876-59.348083-126.054389-7.293784-55.635744 33.90643-96.380851 83.70332-106.257263 26.287426-5.231709 51.881116-2.908854 76.388392 7.923079 3.646892 1.606968 5.687822 0.976666 8.510086-1.519371 60.368044-53.834449 156.619009-53.312889 216.574235 1.194151 3.21293 2.929999 5.361596 1.974477 8.596677 0.693735 46.583961-18.668422 90.671884-14.912788 129.55025 16.867127 28.740167 23.530609 37.575473 51.793519 29.891022 98.334184-4.12415 14.717455-5.57908 21.620572-11.526676 37.488882-12.242562 32.73443-35.68658 60.497931-61.800824 84.48566-2.540339 2.322855-5.122967 4.623558-7.662299 6.967557-0.26078 0.26078-0.347371 0.716893-0.433962 0.912226 15.042674 7.489117 30.454871 14.326788 45.042439 22.532798 126.857873 71.395311 208.000717 176.350688 245.901409 312.304647C1010.251625 709.697718 1012.726517 782.178438 1000.831326 855.267309L1000.831326 855.267309zM908.835405 621.239946c-31.584582-119.173423-101.395076-179.715656-204.939824-257.991934-11.200449-8.465784-78.277285-39.724139-78.0598-39.941623 2.127521-2.039924 32.73443-28.284054 63.992785-69.398683 8.46679-11.113858 30.630067-47.017923 34.189361-60.454635 5.883156-32.343764 5.340451-47.647218-18.625126-68.268972-32.387059-27.851099-65.209087-17.757202-104.04315-1.410628-2.670226 1.128704-4.472527 1.953333-7.141746-0.629295-49.970073-47.75596-130.178538-48.212073-180.474838-1.042113-2.36615 2.214113-48.841369-20.970132-70.744872-16.388863-23.704798 4.948778-62.842937 20.274384-56.352637 72.198796 5.297156 42.329924 22.749276 67.879313 50.70811 99.441743 5.730111 6.468149 48.429558 43.631811 46.888036 44.326553-142.79163 66.055867-291.595295 219.961354-302.883341 383.13611-3.125332 45.130037-4.340627 100.505001 6.859822 144.767113 17.64846 69.702759 86.309106 109.883011 159.115046 109.730973 171.553948-0.412818 343.12904 0.044302 514.682988-0.238629 55.09304-0.087598 114.072607-25.094282 144.874849-70.658281 15.629681-23.139943 20.253239-52.032147 24.507275-79.579171C941.287911 744.777154 925.39745 683.844254 908.835405 621.239946L908.835405 621.239946zM569.02703 609.192718l32.517952 0 21.034572 0c18.277755 0 33.125097 14.739606 33.125097 32.908619 0 18.169013-14.826197 32.908619-33.125097 32.908619l-53.552525 0c0 0-0.022151 0-0.043296 0l-31.519135 0 0 35.556694 31.562431 0 32.517952 0 21.034572 0c18.2989 0 33.125097 14.738599 33.125097 32.907612 0 18.169013-14.826197 32.908619-33.125097 32.908619l-53.530374 0c-0.022151 0-0.044302 0-0.065447 0l-31.519135 0 0 22.445201c0 18.191164-14.804046 32.908619-33.103952 32.908619-18.277755 0-33.125097-14.717455-33.125097-32.908619l0-0.998817 0-21.446383-31.519135 0c0 0-0.022151 0-0.043296 0l-53.530374 0c-18.299907 0-33.125097-14.739606-33.125097-32.908619 0-18.169013 14.826197-32.907612 33.125097-32.907612l22.662685 0 30.867689 0 31.562431 0 0-35.556694-31.519135 0c-0.022151 0-0.022151 0-0.043296 0l-53.552525 0c-18.277755 0-33.103952-14.738599-33.103952-32.908619 0-18.169013 14.826197-32.908619 33.103952-32.908619l22.684836 0 30.867689 0 31.562431 0 0-25.658131-61.844119-60.694271c-0.608151-0.520553-1.215295-1.063257-1.801295-1.650264l-17.821642-17.626309-4.514816-4.428225 0.022151 0-15.629681-15.477643c-12.9806-12.807418-13.024902-33.646657-0.129887-46.518514 12.894009-12.872864 33.863134-12.938311 46.844741-0.108742l19.905868 19.667239 72.7415 71.417463 67.943753-66.685162 19.928019-19.688384c12.959455-12.807418 33.928581-12.764122 46.822589 0.108742 12.91616 12.894009 12.850713 33.733248-0.108742 46.540665l-15.628674 15.455492 0 0.021144-4.514816 4.428225-17.821642 17.626309c-0.586 0.564855-1.172 1.10756-1.801295 1.628113l-66.359942 65.122496 0 16.519756L569.02703 609.192718 569.02703 609.192718z" p-id="2691"></path></svg>