<?xml version="1.0" standalone="no"?><!DOCTYPE svg PUBLIC "-//W3C//DTD SVG 1.1//EN" "http://www.w3.org/Graphics/SVG/1.1/DTD/svg11.dtd"><svg t="1585902505734" class="icon" viewBox="0 0 1024 1024" version="1.1" xmlns="http://www.w3.org/2000/svg" p-id="3960" xmlns:xlink="http://www.w3.org/1999/xlink" width="48" height="48"><defs><style type="text/css"></style></defs><path d="M864.5 714.876L512 917.457 159.5 714.876V309.714L512 107.133l352.5 202.581z" fill="#3FA9F5" p-id="3961"></path><path d="M832 696.691L511.5 881.088 191 696.691V327.899l320.5-184.398L832 327.899z" fill="#FFFFFF" p-id="3962"></path><path d="M511.505 106.793m-59.792 0a59.792 59.792 0 1 0 119.584 0 59.792 59.792 0 1 0-119.584 0Z" fill="#FFFFFF" p-id="3963"></path><path d="M511.506 106.793m-43.979 0a43.979 43.979 0 1 0 87.958 0 43.979 43.979 0 1 0-87.958 0Z" fill="#3FA9F5" p-id="3964"></path><path d="M511.506 106.793m-22.237 0a22.237 22.237 0 1 0 44.474 0 22.237 22.237 0 1 0-44.474 0Z" fill="#FFFFFF" p-id="3965"></path><path d="M511.505 917.207m-59.792 0a59.792 59.792 0 1 0 119.584 0 59.792 59.792 0 1 0-119.584 0Z" fill="#FFFFFF" p-id="3966"></path><path d="M511.506 917.207m-43.979 0a43.979 43.979 0 1 0 87.958 0 43.979 43.979 0 1 0-87.958 0Z" fill="#3FA9F5" p-id="3967"></path><path d="M511.506 917.207m-22.237 0a22.237 22.237 0 1 0 44.474 0 22.237 22.237 0 1 0-44.474 0Z" fill="#FFFFFF" p-id="3968"></path><path d="M864.333 313.35m-59.792 0a59.792 59.792 0 1 0 119.584 0 59.792 59.792 0 1 0-119.584 0Z" fill="#FFFFFF" p-id="3969"></path><path d="M864.333 313.35m-43.98 0a43.98 43.98 0 1 0 87.96 0 43.98 43.98 0 1 0-87.96 0Z" fill="#3FA9F5" p-id="3970"></path><path d="M864.333 313.35m-22.237 0a22.237 22.237 0 1 0 44.474 0 22.237 22.237 0 1 0-44.474 0Z" fill="#FFFFFF" p-id="3971"></path><path d="M864.333 714.604m-59.792 0a59.792 59.792 0 1 0 119.584 0 59.792 59.792 0 1 0-119.584 0Z" fill="#FFFFFF" p-id="3972"></path><path d="M864.333 714.604m-43.98 0a43.98 43.98 0 1 0 87.96 0 43.98 43.98 0 1 0-87.96 0Z" fill="#3FA9F5" p-id="3973"></path><path d="M864.333 714.604m-22.237 0a22.237 22.237 0 1 0 44.474 0 22.237 22.237 0 1 0-44.474 0Z" fill="#FFFFFF" p-id="3974"></path><path d="M159.667 306.431m-59.792 0a59.792 59.792 0 1 0 119.584 0 59.792 59.792 0 1 0-119.584 0Z" fill="#FFFFFF" p-id="3975"></path><path d="M159.667 306.431m-43.98 0a43.98 43.98 0 1 0 87.96 0 43.98 43.98 0 1 0-87.96 0Z" fill="#3FA9F5" p-id="3976"></path><path d="M159.667 306.431m-22.237 0a22.237 22.237 0 1 0 44.474 0 22.237 22.237 0 1 0-44.474 0Z" fill="#FFFFFF" p-id="3977"></path><path d="M159.667 714.604m-59.792 0a59.792 59.792 0 1 0 119.584 0 59.792 59.792 0 1 0-119.584 0Z" fill="#FFFFFF" p-id="3978"></path><path d="M159.667 714.604m-43.98 0a43.98 43.98 0 1 0 87.96 0 43.98 43.98 0 1 0-87.96 0Z" fill="#3FA9F5" p-id="3979"></path><path d="M159.667 714.604m-22.237 0a22.237 22.237 0 1 0 44.474 0 22.237 22.237 0 1 0-44.474 0Z" fill="#FFFFFF" p-id="3980"></path><path d="M341.915 532.88c-15.621 15.621-40.947 15.621-56.568 0s-15.621-40.947 0-56.568c15.621-15.622 40.948-15.621 56.568 0 15.621 15.621 15.622 40.947 0 56.568z m157.16 157.16c-15.621 15.621-40.947 15.621-56.568 0-15.62-15.62-15.621-40.947 0-56.568s40.948-15.62 56.568 0c15.621 15.621 15.621 40.947 0 56.568z m-47.839-25.212l-139.301-139.3 22.628-22.628 139.3 139.3-22.627 22.628zM581.495 390.529c-15.621 15.621-40.947 15.621-56.568 0-15.621-15.621-15.621-40.947 0-56.568 15.621-15.622 40.947-15.621 56.568 0 15.621 15.62 15.621 40.947 0 56.568z m157.158 157.159c-15.621 15.621-40.947 15.621-56.568 0-15.619-15.619-15.621-40.947 0-56.568s40.949-15.62 56.568 0c15.621 15.621 15.621 40.947 0 56.568z m-47.838-25.21l-139.3-139.302 22.628-22.627 139.3 139.3-22.628 22.629z" fill="#3FA9F5" p-id="3981"></path><path d="M536.587 359.61l30.91 8.282-85.664 319.713-30.908-8.282z" fill="#3FA9F5" p-id="3982"></path></svg>