<?xml version="1.0" standalone="no"?><!DOCTYPE svg PUBLIC "-//W3C//DTD SVG 1.1//EN" "http://www.w3.org/Graphics/SVG/1.1/DTD/svg11.dtd"><svg t="1585896462012" class="icon" viewBox="0 0 1024 1024" version="1.1" xmlns="http://www.w3.org/2000/svg" p-id="1382" xmlns:xlink="http://www.w3.org/1999/xlink" width="48" height="48"><defs><style type="text/css"></style></defs><path d="M860 64H164A100 100 0 0 0 64 164v696a100 100 0 0 0 100 100h696a100 100 0 0 0 100-100V164A100 100 0 0 0 860 64z m28 774a50 50 0 0 1-50 50H186a50 50 0 0 1-50-50V186a50 50 0 0 1 50-50h652a50 50 0 0 1 50 50z" p-id="1383"></path><path d="M708 388H316a36 36 0 0 0-36 36 36 36 0 0 0 36 36h160v72H316a36 36 0 0 0-36 36 36 36 0 0 0 36 36h160v142.91A33.08 33.08 0 0 0 509.09 780h5.82A33.08 33.08 0 0 0 548 746.91V604h160a36 36 0 0 0 36-36 36 36 0 0 0-36-36H548v-72h160a36 36 0 0 0 36-36 36 36 0 0 0-36-36z" p-id="1384"></path><path d="M486.24 377.49A35.76 35.76 0 0 0 511.8 388a35.33 35.33 0 0 0 25.28-10.4l72.56-72.8a35.83 35.83 0 0 0 0-50.4 35.52 35.52 0 0 0-50.23 0l-47.13 47.29-47-47.18a35.93 35.93 0 0 0-50.78 0 36.22 36.22 0 0 0 0 51z" p-id="1385"></path></svg>