<?xml version="1.0" standalone="no"?><!DOCTYPE svg PUBLIC "-//W3C//DTD SVG 1.1//EN" "http://www.w3.org/Graphics/SVG/1.1/DTD/svg11.dtd"><svg t="1585896425644" class="icon" viewBox="0 0 1024 1024" version="1.1" xmlns="http://www.w3.org/2000/svg" p-id="1105" xmlns:xlink="http://www.w3.org/1999/xlink" width="48" height="48"><defs><style type="text/css"></style></defs><path d="M769.43 324c0-143.59-116.4-260-260-260s-260 116.41-260 260a259.7 259.7 0 0 0 112.16 213.88C188.15 599.68 64 765.34 64 960h72c0-206.8 167-374.6 373.43-376 143.57 0 260-116.41 260-260z m-260 188c-103.83 0-188-84.17-188-188s84.17-188 188-188 188 84.17 188 188-84.17 188-188 188zM924 648H794.93l34.49-34.5a36 36 0 0 0 0-51 36 36 0 0 0-50.95 0l-95.92 95.93a35.87 35.87 0 0 0-9.8 18.19 0.3 0.3 0 0 0 0 0.1c-0.11 0.52-0.2 1.05-0.29 1.59v0.2c-0.08 0.52-0.14 1.05-0.2 1.57v0.22c0 0.57-0.1 1.15-0.13 1.72v3.6c0 0.53 0.07 1 0.12 1.57a0.53 0.53 0 0 0 0 0.13A36 36 0 0 0 708 720h216a36 36 0 0 0 36-36 36 36 0 0 0-36-36zM960 826.28c0-0.53-0.07-1-0.12-1.57a0.53 0.53 0 0 0 0-0.13A36 36 0 0 0 924 792H708a36 36 0 0 0-36 36 36 36 0 0 0 36 36h129.07l-34.49 34.5a36 36 0 0 0 0 51 36 36 0 0 0 50.95 0l95.92-95.93a35.91 35.91 0 0 0 9.8-18.19 0.3 0.3 0 0 0 0-0.1c0.11-0.52 0.2-1.05 0.29-1.59v-0.2c0.08-0.52 0.14-1.05 0.2-1.57v-0.22c0-0.57 0.1-1.15 0.13-1.72v-0.08-1.83-0.69c0-0.23 0.13-0.76 0.13-1.1z" p-id="1106"></path></svg>