<?xml version="1.0" standalone="no"?><!DOCTYPE svg PUBLIC "-//W3C//DTD SVG 1.1//EN" "http://www.w3.org/Graphics/SVG/1.1/DTD/svg11.dtd"><svg t="1585810896900" class="icon" viewBox="0 0 1807 1024" version="1.1" xmlns="http://www.w3.org/2000/svg" p-id="3156" xmlns:xlink="http://www.w3.org/1999/xlink" width="352.9296875" height="200"><defs><style type="text/css"></style></defs><path d="M500.135926 0h1256.932577a62.782105 62.782105 0 0 1 48.78034 76.009578l-375.789288 895.016005a123.822054 123.822054 0 0 1-91.366351 52.780844H36.851742c-34.262382-3.161689-44.650788-33.746188-31.165217-89.688721L369.087155 69.6862A168.537366 168.537366 0 0 1 500.135926 0z" fill="#00908C" p-id="3157"></path><path d="M501.942605 0h371.659736a170.602142 170.602142 0 0 0-131.823063 69.6862L378.572221 934.053182c-13.48557 55.942533-3.097164 86.527032 31.165217 89.688721H37.88413c-34.262382-3.161689-44.650788-33.746188-31.165217-89.688721L370.119543 69.6862A168.924512 168.924512 0 0 1 501.942605 0z" fill="#E60012" p-id="3158"></path><path d="M873.602341 0h458.122243a170.602142 170.602142 0 0 0-131.823063 69.6862l-363.336105 864.625079c-13.48557 55.942533-3.097164 86.527032 31.165217 89.688721h-458.122243c-34.262382-3.161689-44.650788-33.746188-31.165218-89.688721l363.336106-864.625079A168.924512 168.924512 0 0 1 873.602341 0z" fill="#00508E" p-id="3159"></path><path d="M548.98079 370.433774h64.52426l1.032388 29.552111h58.071834v56.974922H587.114628a59.039698 59.039698 0 0 1-69.557152 26.390422v-46.457467c23.873976-3.161689 33.229994-23.228733 31.165217-66.524512z m809.779459 100.2707h-48.393195l-39.424323-61.233523c-3.097164 2.129301-4.129553 9.485066-8.323629 11.614367-6.452426 3.161689-11.420794 1.032388-16.582735 4.194077v267.001386c16.582735 10.581979 11.420794 25.358034 12.453182 42.198866 13.48557-3.161689 21.8092 1.032388 35.29477-1.032388 7.291241-26.390422 24.906364-56.974921 33.229994-84.462256 2.064776-6.452426-1.032388-13.743667 1.032388-18.970132h-52.974417l1.032388-51.619408 62.265911 1.032388c0-10.581979 1.032388-31.681411 1.032388-42.198865h-64.52426v-52.780845l187.894644 3.161689-1.032388 49.619156-62.265911 2.1293-1.032388 42.198866 59.168746-1.032388v46.457467l-62.26591 1.032388c-5.161941 0-2.064776 12.904852-5.161941 17.937744v4.194077c8.323629 1.032388 17.679647-3.161689 24.906364 3.161689 6.452426 5.290989 2.064776 20.067045 8.32363 29.55211 9.356018 15.808444 12.453182 38.004789 40.45671 41.166478v60.13661h-41.553623a179.05482 179.05482 0 0 1-47.747952-81.300567l-8.323629 4.194077a169.569754 169.569754 0 0 1-43.6184 77.041966h-60.201134c-2.064776-5.290989 1.032388-15.808444 0-17.937744-1.032388-4.194077-7.291241 2.129301-16.582735-2.129301-2.064776 14.776055 2.064776 12.904852-4.129552 20.067045a296.230876 296.230876 0 0 1-54.006806-2.129301c-10.388406-2.129301 1.032388-14.776055-9.356017-16.905356a831.782231 831.782231 0 0 0-116.143668-1.032388v-52.651796c14.517958-2.129301 12.453182 3.161689 19.744424-3.161689V381.015753c17.679647 1.032388 34.262382 0 51.619408 1.032388 1.032388 6.452426-1.032388 17.937744 0 24.261122 3.097164-2.129301 13.48557 4.194077 13.48557 0 2.064776-25.358034 54.006805-31.681411 102.787145-27.422811 10.388406 1.032388-1.032388-8.452678 10.388406-9.485066a554.521487 554.521487 0 0 1 60.201134-2.1293c9.356018 21.099433 13.48557 35.875488 36.327159 44.328166l1.032388 59.104222z m50.845116-98.141399h55.619912v8.452678c12.453182 35.875488-19.744423 67.5569-36.327158 86.527032h-46.715564v-53.61966c20.776812-4.194077 20.776812-7.355766 28.003529-21.099432l-1.032389-20.067045z m-704.927536 4.194077h44.328166l1.032388 32.713799c32.26213-31.681411 75.816005-35.875488 156.729427-29.55211v169.956899c0 23.228733-20.776812 31.681411-22.841588 34.843101l-141.372653-1.096913 1.032388 122.596093c4.129553 7.42029 9.356018 12.904852 15.550347 12.904852h40.456711l-1.032388 56.974922h-86.914178c-7.291241-1.032388-10.388406-7.355766-10.388406-15.808444l3.097165-383.145054z m442.249275 50.651544a169.9569 169.9569 0 0 0-9.356017 77.041966 66.589036 66.589036 0 0 0 48.78034-24.261122c-1.032388-17.937744 1.032388-34.8431 0-52.780844-11.420794 1.032388-26.971141 0-39.424323 0z m-391.468683 9.54959v51.619408a105.239067 105.239067 0 0 1 13.485571-9.485066c33.229994-28.519723 45.683176-13.743667 73.686704-21.099433v-20.067045z m-241.901449 61.233522h163.827095v44.328167h-63.298299v48.522243h60.201135v52.780844h-28.003529a149.954379 149.954379 0 0 0-28.003529 85.494644h43.6184v48.522244l-75.816005 4.194076c-38.714556-22.196345-34.262382-76.009578-32.26213-138.275488h-43.553875v-52.780844h43.618399v-48.522243h-39.424322l-1.032389-44.328167z m329.073724 43.295779l1.032388-24.261122h-85.301071v24.261122z m294.811342-6.452426v68.589288c17.679647-4.194077 32.26213-8.452678 49.812729-12.904852v-56.974922z m-262.678261 64.524259h39.424323c-1.032388 18.970132 0 41.166478-2.064776 60.13661a143.566478 143.566478 0 0 1-59.168746 5.29099v12.904851c6.452426 20.067045 2.064776 39.037177 21.809199 46.457467 8.323629-8.452678 18.712035-7.355766 36.327158-7.355765-1.032388 18.970132 0 38.004789-1.032388 56.974921a140.340265 140.340265 0 0 1-74.719092-7.355766c-40.456711-27.42281-31.165217-96.786389-49.812729-159.374921 1.032388-3.161689 4.129553-5.290989 5.161941-8.452678h43.618399c4.129553 10.581979 4.129553 22.196345 8.32363 33.746188a57.55564 57.55564 0 0 0 31.165217-9.485066l1.032389-23.228734z m265.775426 36.972401v64.52426h43.618399c-1.032388-21.099433 0-42.198866-1.032388-63.298299-13.48557 0-29.100441-1.032388-42.586011-1.032388z" fill="#FFFFFF" p-id="3160"></path></svg>